<svg width="298" height="298" viewBox="0 0 298 298" fill="none" xmlns="http://www.w3.org/2000/svg" xmlns:xlink="http://www.w3.org/1999/xlink">
<g id="chess" filter="url(#filter0_d_441_185)">
<circle id="bg" cx="147" cy="145" r="141" fill="#A4CF4A"/>
<g id="chess pieces 2" filter="url(#filter1_d_441_185)">
<path id="Vector" d="M209.365 111.273C212.04 110.702 214.67 108.744 217.383 108.127C229.622 105.343 241.072 108.946 250.347 117.133C248.503 119.797 235.49 138.738 235.419 140.246L235.781 141.922C236.808 149.227 237.947 156.515 239.201 163.784C239.861 167.815 240.903 173.274 241.049 177.263C244.462 177.647 248.678 178.23 252.038 178.303C251.404 183.992 250.722 189.676 249.984 195.353L208.505 189.936L188.448 187.381C189.087 184.354 190.547 173.65 190.422 170.643C194.118 171.048 197.807 171.538 201.481 172.11C205.748 161.363 212.089 148.254 216.945 137.497C215.682 133.031 208.868 115.068 208.631 112.027L209.365 111.273Z" fill="black"/>
<path id="Vector_2" d="M235.781 141.922C236.809 149.227 237.948 156.515 239.202 163.784C239.862 167.815 240.904 173.274 241.05 177.263C244.462 177.647 248.679 178.23 252.039 178.303C251.405 183.992 250.722 189.676 249.985 195.353L208.506 189.936C208.877 184.602 209.958 179.225 210.268 173.586C212.368 173.663 214.412 174.108 216.479 174.494C219.071 166.102 220.793 155.332 224.288 147.425C228.361 145.486 231.352 143.194 235.781 141.922Z" fill="#2D2D2D"/>
<path id="Vector_3" d="M209.365 111.273C212.04 110.702 214.67 108.744 217.384 108.127C229.623 105.343 241.072 108.946 250.348 117.133C248.504 119.797 235.49 138.738 235.419 140.246C233.475 139.221 228.345 138.51 226.086 138.265C226.104 130.375 224.189 122.681 225.007 114.497C219.856 112.929 214.317 112.734 209.365 111.273Z" fill="#2D2D2D"/>
<path id="Vector_4" d="M229.029 78.5778C230.709 79.0042 232.912 79.3046 234.659 79.5911C235.92 79.709 237.187 79.843 238.455 79.9051C237.999 80.9652 235.936 85.9659 235.467 86.634C236.948 87.3217 240.866 86.4176 243.002 86.34C242.605 89.2082 242.119 92.2988 241.812 95.1582C240.007 94.4888 236.849 92.8255 235.329 93.0863C234.637 93.9219 234.899 94.136 234.965 95.4833C235.19 97.4709 235.986 101.849 234.989 103.385L234.191 103.457L231.35 103.139L225.782 102.823C226.915 99.2192 227.985 95.597 228.997 91.9584L222.132 92.6157C222.371 89.7237 222.838 86.5904 223.113 83.6049C225.163 84.4433 227.82 85.2456 229.958 85.957C229.589 83.7485 229.31 80.8476 229.029 78.5778Z" fill="black"/>
<path id="Vector_5" d="M235.468 86.634C236.949 87.3216 240.867 86.4175 243.003 86.3399C242.606 89.2081 242.12 92.2987 241.813 95.1581C240.008 94.4887 236.85 92.8254 235.33 93.0862C234.638 93.9218 234.9 94.1359 234.966 95.4832C235.191 97.4708 235.987 101.849 234.99 103.385L234.192 103.457L231.35 103.139C231.219 99.6305 232.087 90.3755 233.203 87.238C233.949 86.6749 234.493 86.7343 235.468 86.634Z" fill="#2D2D2D"/>
<path id="Vector_6" d="M234.192 103.457L233.778 102.96C233.691 100.463 233.373 97.3029 234.966 95.4836C235.191 97.4711 235.987 101.85 234.991 103.385L234.192 103.457Z" fill="#272C26"/>
<path id="Vector_7" d="M234.659 79.591C235.92 79.709 237.187 79.843 238.455 79.9051C238 80.9651 235.937 85.9658 235.467 86.634C234.492 86.7343 233.948 86.675 233.203 87.238C233.219 84.4746 233.647 82.1481 234.659 79.591Z" fill="#272C26"/>
</g>
<g id="chess pieces 2_2" filter="url(#filter2_d_441_185)">
<path id="Vector_8" d="M55.095 86.5762C68.9139 77.329 81.0123 76.5095 95.8273 84.3274C93.2599 91.4226 89.2838 102.446 86.0393 109.118C86.1524 109.706 86.4224 111.295 86.5837 111.78C87.3151 113.172 87.9094 114.603 88.4587 116.076C92.072 125.754 96.0801 135.308 99.2606 145.14C102.982 144.839 106.709 144.617 110.438 144.476L111.687 161.024C98.7888 162.229 85.8741 163.265 72.9504 164.132C65.8133 164.951 57.3101 165.292 49.8903 165.974C49.6096 160.537 49.0663 154.706 48.6559 149.248C52.266 148.806 55.8922 148.47 59.5225 148.238C61.4385 137.453 65.8497 121.763 66.933 111.189C67.2035 108.554 54.4355 90.8743 54.2732 87.4518L55.095 86.5762Z" fill="#EAEAEA"/>
<path id="Vector_9" d="M76.146 119.532C78.8086 118.066 83.5687 113.927 86.5836 111.78C87.315 113.172 87.9092 114.603 88.4586 116.076C92.0718 125.754 96.08 135.308 99.2604 145.14C102.981 144.839 106.709 144.617 110.438 144.476L111.687 161.024C98.7887 162.229 85.874 163.265 72.9503 164.132C72.4766 163.855 71.0592 163.962 69.9212 163.69C69.1795 159.71 68.8707 152.079 68.5745 147.798L74.883 147.245C74.7375 138.61 75.7569 128.351 76.146 119.532Z" fill="white"/>
<path id="Vector_10" d="M55.0948 86.5763C68.9136 77.329 81.0121 76.5095 95.827 84.3274C93.2596 91.4226 89.2835 102.446 86.039 109.118C83.2595 109.583 80.1926 110.685 77.503 109.972C75.6419 108.104 71.15 90.3592 70.1001 86.4321C67.2725 86.8427 57.2665 88.0043 55.0948 86.5763Z" fill="white"/>
<path id="Vector_11" d="M73.9058 50.788C75.5537 50.7113 75.7022 50.4012 76.7206 51.2545C77.1509 52.792 76.0488 55.549 75.667 57.3066C77.9948 56.9055 80.4775 56.4348 82.8014 56.0873C82.9522 58.7326 83.0476 61.8575 83.3626 64.4518C81.0005 64.353 78.6399 64.327 76.3223 63.8696C77.103 67.2098 78.2714 71.3761 78.8811 74.6286L73.7325 74.902C72.4441 74.9671 70.4593 75.2987 69.128 75.4841C69.1893 71.7393 69.8775 67.9721 70.4584 64.2671L63.1687 65.9681C63.036 62.9834 62.8498 60.6075 62.5022 57.6408C65.3663 57.8093 67.045 57.9781 69.9103 57.5886C69.0437 55.8443 67.9687 53.1561 67.1665 51.3107C69.2462 51.2766 71.798 50.9772 73.9058 50.788Z" fill="white"/>
<path id="Vector_12" d="M69.9105 57.5885C70.9996 58.4761 71.8852 59.1101 72.744 60.2308C73.8602 64.6565 73.4993 70.3432 73.7327 74.9019C72.4443 74.967 70.4595 75.2986 69.1282 75.484C69.1895 71.7392 69.8777 67.972 70.4586 64.267L63.1689 65.968C63.0362 62.9833 62.85 60.6074 62.5024 57.6407C65.3665 57.8092 67.0452 57.978 69.9105 57.5885Z" fill="#EAEAEA"/>
<path id="Vector_13" d="M67.1679 51.3106C69.2476 51.2765 71.7994 50.9771 73.9072 50.7879C70.5346 52.8648 72.4817 56.7416 72.7452 60.2308C71.8864 59.1101 71.0009 58.4761 69.9117 57.5885C69.0452 55.8442 67.9701 53.156 67.1679 51.3106Z" fill="#EAEAEA"/>
</g>
<g id="chess pieces 2_3" filter="url(#filter3_d_441_185)">
<path id="Vector_14" d="M170.431 101.13C170.912 96.7811 171.842 92.1595 172.064 87.8155C172.3 83.15 170.773 83.7141 168.77 81.56C168.989 79.7818 172.703 71.8721 174.404 71.4804C174.806 72.4501 175.067 73.2305 175.388 74.2308C177.213 75.9243 178.828 78.1795 180.578 79.3691C179.401 81.2727 178.207 83.1174 177.243 85.1406C178.025 87.6129 181.28 98.8525 181.985 100.024C183.749 96.3646 187.656 90.341 189.822 86.403C189.236 84.6865 188.747 82.376 188.313 80.5702C190.161 79.4579 195.38 74.465 196.9 74.9698L196.94 76.0882C198.017 79.6975 198.479 81.2267 199.063 84.9109L199.099 85.1607C197.148 86.3916 196.014 87.0883 194.258 88.6417C193.889 93.6547 193.151 99.144 192.579 104.173C196.492 100.641 200.973 96.862 204.139 92.6972C204.656 85.003 206.813 87.8907 212.877 86.0857C208.75 93.9885 203.657 101.52 198.87 109.046C196.456 112.845 193.249 116.982 191.726 121.207C190.451 124.733 192.87 159.662 193.704 165.421C197.311 165.699 200.912 166.031 204.509 166.417C203.769 171.99 202.897 177.896 202.324 183.455C198.05 182.416 191.049 181.702 186.443 181.11L160.477 177.775C155.786 177.153 144.786 175.422 140.577 175.47C141.313 170.392 142.489 163.479 142.825 158.541C146.434 158.835 150.132 159.444 153.722 159.982C157.107 148.679 161.277 137.466 164.88 126.221C165.631 123.88 166.497 121.616 167.486 119.365C163.142 105.823 158.941 92.2346 154.89 78.6014C157.203 79.7981 160.918 81.2608 163.401 82.3203C162.542 84.1029 162.222 86.4412 161.848 88.4195C164.518 92.5973 167.622 97.0304 170.431 101.13Z" fill="#2D2D2D"/>
<path id="Vector_15" d="M170.431 101.13C170.912 96.7811 171.842 92.1595 172.064 87.8155C172.3 83.15 170.773 83.7141 168.77 81.56C168.989 79.7818 172.703 71.8721 174.404 71.4804C174.806 72.4501 175.067 73.2305 175.388 74.2308C173.221 78.6322 175.599 84.4139 175.515 88.9027C175.325 98.7926 177.83 109.908 177.473 119.508C180.788 120.236 188.705 120.907 190.448 122.648C190.685 126.525 175.811 129.414 175.388 132.359C174.113 141.216 170.647 153.389 169.663 162.018L162.959 161.208C162.024 166.767 161.397 172.303 160.477 177.775C155.786 177.153 144.786 175.422 140.577 175.47C141.313 170.392 142.489 163.479 142.825 158.541C146.434 158.835 150.132 159.444 153.722 159.982C157.107 148.679 161.277 137.466 164.88 126.221C165.631 123.88 166.497 121.616 167.486 119.365C163.142 105.823 158.941 92.2346 154.89 78.6014C157.203 79.7981 160.918 81.2608 163.401 82.3203C162.542 84.1029 162.222 86.4412 161.848 88.4195C164.518 92.5973 167.622 97.0304 170.431 101.13Z" fill="black"/>
<path id="Vector_16" d="M188.313 80.5701C190.161 79.4578 195.38 74.4649 196.9 74.9697L196.94 76.0881C198.017 79.6974 198.479 81.2266 199.063 84.9108L199.099 85.1606C197.147 86.3915 196.014 87.0882 194.258 88.6416C194.228 88.3474 194.06 87.8138 193.979 87.5058L192.433 87.0416C189.278 95.0255 187.599 102.986 184.358 110.732C183.769 108.763 180.883 101.376 181.985 100.024C183.749 96.3645 187.656 90.3409 189.822 86.4029C189.236 84.6864 188.747 82.3759 188.313 80.5701Z" fill="black"/>
<path id="Vector_17" d="M196.939 76.088C198.016 79.6974 198.478 81.2265 199.062 84.9107L199.098 85.1606C197.146 86.3915 196.013 87.0881 194.257 88.6416C194.227 88.3473 194.059 87.8138 193.978 87.5057L192.432 87.0415C194.161 83.5855 195.25 78.2703 196.939 76.088Z" fill="#272C26"/>
</g>
<g id="chess pieces 2_4" filter="url(#filter4_d_441_185)">
<path id="Vector_18" d="M104.875 55.6732C105.439 53.7867 107.319 46.8715 108.76 45.8097L109.225 46.136C115.687 50.9835 116.809 50.0502 114.759 57.7761C116.325 62.068 119.548 67.753 121.674 72.0304C123.026 70.5564 126.305 59.4156 127.056 56.8853C126.295 55.0103 125.483 53.6046 124.504 51.8541C127.073 48.3855 128.534 46.7547 131.495 43.6449L133.754 47.8845L136.167 53.1382C134.891 54.4614 133.196 56.1198 132.074 57.5232C132.79 62.5807 132.867 68.2866 133.352 73.4643C136.32 69.1399 139.593 65.6594 142.306 61.1836C142.206 59.0016 142.162 56.7005 141.813 54.5541C144.617 53.9923 147.288 52.8866 149.855 51.637C146.813 60.3259 143.66 68.9756 140.396 77.5838C139.01 81.2928 136.922 87.5303 135.361 90.8367C135.468 91.6033 135.652 93.426 135.962 94.0293C139.675 105.214 143.511 121.246 146.779 132.949C150.445 132.819 154.107 132.588 157.762 132.255C158.192 137.664 158.547 143.652 159.134 148.999L123.496 151.778C114.653 152.547 105.85 152.996 97.0082 153.887C96.7308 148.441 96.1759 142.562 95.7646 137.093C99.3446 136.833 103.09 136.432 106.677 136.107C108.131 122.328 109.774 107.399 111.806 93.7367C105.452 81.1155 97.387 68.6841 91.3007 56.3623C94.377 57.0022 96.9654 57.5442 100.086 57.9232C100.248 60.142 100.139 62.1217 100.053 64.3323C103.947 68.6897 106.891 71.1116 110.937 75.0993C110.577 69.8319 110.194 64.5663 109.778 59.3032C108.183 58.0824 106.496 56.8719 104.875 55.6732Z" fill="#EAEAEA"/>
<path id="Vector_19" d="M122.177 103.668C126.861 99.9912 130.707 96.8276 135.962 94.0292C139.675 105.213 143.511 121.246 146.779 132.949C150.445 132.819 154.107 132.588 157.762 132.255C158.192 137.664 158.547 143.652 159.134 148.999L123.495 151.778C121.896 151.444 118.997 151.759 117.268 151.872L115.978 135.67L122.721 135.099C122.038 125.034 122.355 113.87 122.177 103.668Z" fill="white"/>
<path id="Vector_20" d="M124.504 51.854C127.073 48.3855 128.534 46.7546 131.495 43.6448L133.754 47.8844L136.167 53.1382C134.891 54.4613 133.197 56.1198 132.075 57.5232C132.791 62.5807 132.868 68.2866 133.353 73.4643C136.321 69.1399 139.594 65.6594 142.306 61.1836C142.207 59.0016 142.163 56.7005 141.814 54.554C144.618 53.9923 147.288 52.8866 149.855 51.637C146.814 60.3258 143.661 68.9756 140.396 77.5838C139.011 81.2927 136.922 87.5303 135.362 90.8366C134.145 90.7377 123.992 92.0779 121.988 92.3117C120.935 87.1916 118.404 79.4574 116.855 74.0941C114.502 65.9595 111.913 54.603 108.845 46.9644L109.226 46.1359C115.688 50.9835 116.81 50.0502 114.759 57.776C116.326 62.068 119.549 67.7529 121.675 72.0304C123.027 70.5564 126.305 59.4155 127.056 56.8852C126.296 55.0102 125.483 53.6045 124.504 51.854Z" fill="white"/>
<path id="Vector_21" d="M124.503 51.854C127.073 48.3855 128.533 46.7546 131.494 43.6449L133.754 47.8845L132.198 47.1347C129.734 49.5193 128.166 75.2819 125.893 82.4038C124.779 78.844 122.184 73.9914 121.674 72.0304C123.026 70.5564 126.305 59.4155 127.056 56.8853C126.295 55.0103 125.483 53.6046 124.503 51.854Z" fill="#EAEAEA"/>
</g>
<path id="Chess" d="M106.412 227.736C104.561 229.394 102.498 230.783 100.222 231.901C97.947 233.019 95.3825 233.578 92.5288 233.578C89.7907 233.578 87.3612 232.981 85.2401 231.785C83.1191 230.59 81.4416 228.835 80.2075 226.521C79.012 224.207 78.4143 221.354 78.4143 217.96C78.4143 215.492 78.7421 213.043 79.3977 210.614C80.0918 208.184 81.0752 205.928 82.3478 203.846C83.659 201.725 85.2401 199.854 87.0912 198.234C88.9423 196.576 91.044 195.284 93.3965 194.359C95.7874 193.433 98.3905 192.97 101.206 192.97C103.018 192.97 104.811 193.163 106.585 193.549C108.359 193.896 110.172 194.436 112.023 195.169L108.205 205.812H106.585L106.123 195.169L109.073 195.921L108.436 197.425C107.241 196.576 105.93 195.978 104.503 195.631C103.076 195.284 101.746 195.111 100.512 195.111C97.8892 195.111 95.556 195.786 93.5121 197.135C91.4682 198.447 89.7521 200.182 88.3638 202.342C86.9755 204.501 85.915 206.873 85.1823 209.457C84.4881 212.04 84.1411 214.605 84.1411 217.15C84.1411 221.238 85.1052 224.419 87.0334 226.695C89.0001 228.931 91.6803 230.05 95.074 230.05C97.1179 230.05 98.969 229.683 100.627 228.951C102.285 228.179 103.847 227.254 105.313 226.174L106.412 227.736ZM134.449 228.835C133.562 229.683 132.636 230.474 131.672 231.207C130.708 231.901 129.763 232.479 128.838 232.942C127.951 233.366 127.141 233.578 126.408 233.578C125.29 233.578 124.538 233.116 124.152 232.19C123.805 231.226 123.844 229.761 124.268 227.794L127.334 213.564C127.565 212.561 127.642 211.732 127.565 211.076C127.526 210.421 127.141 210.093 126.408 210.093C125.83 210.093 125.039 210.44 124.036 211.134C123.034 211.828 121.896 212.812 120.623 214.084C119.389 215.357 118.117 216.861 116.806 218.596C115.494 220.293 114.241 222.183 113.046 224.265L112.699 222.183C113.74 220.177 114.955 218.23 116.343 216.34C117.731 214.412 119.177 212.696 120.681 211.192C122.224 209.649 123.747 208.435 125.251 207.548C126.794 206.661 128.221 206.217 129.532 206.217C131.151 206.217 132.154 206.892 132.54 208.242C132.925 209.592 132.868 211.346 132.366 213.506L129.243 227.91C129.088 228.565 129.127 228.989 129.358 229.182C129.59 229.375 129.821 229.471 130.052 229.471C130.477 229.471 130.978 229.298 131.556 228.951C132.173 228.604 132.829 228.16 133.523 227.62L134.449 228.835ZM107.261 232.422L113.913 197.656C114.145 196.615 114.203 195.863 114.087 195.4C113.971 194.937 113.586 194.648 112.93 194.532C112.274 194.417 111.272 194.339 109.922 194.301L109.98 192.739L119.467 191.351L120.103 191.987L112.178 232.595L108.013 233.289L107.261 232.422ZM147.626 208.068C146.392 208.068 145.255 208.589 144.213 209.63C143.172 210.671 142.266 212.021 141.495 213.679C140.762 215.299 140.183 217.015 139.759 218.828C139.335 220.64 139.123 222.318 139.123 223.86C139.123 225.866 139.547 227.427 140.396 228.546C141.244 229.626 142.613 230.166 144.503 230.166C146.007 230.166 147.356 229.857 148.552 229.24C149.786 228.584 150.846 227.871 151.733 227.1L152.428 228.372C151.618 229.221 150.654 230.05 149.535 230.86C148.455 231.631 147.26 232.287 145.949 232.826C144.638 233.328 143.249 233.578 141.784 233.578C139.161 233.578 137.195 232.749 135.884 231.091C134.572 229.433 133.917 227.37 133.917 224.902C133.917 222.626 134.302 220.39 135.074 218.191C135.845 215.955 136.905 213.93 138.255 212.118C139.644 210.305 141.225 208.859 142.999 207.779C144.811 206.699 146.759 206.159 148.841 206.159C150.692 206.159 152.119 206.603 153.122 207.49C154.163 208.377 154.684 209.611 154.684 211.192C154.684 212.696 154.24 214.065 153.353 215.299C152.505 216.533 151.328 217.613 149.824 218.538C148.32 219.464 146.604 220.216 144.676 220.794C142.787 221.334 140.8 221.701 138.718 221.894L139.007 220.042C141.013 219.85 142.864 219.406 144.56 218.712C146.296 218.018 147.684 217.073 148.725 215.878C149.805 214.643 150.345 213.178 150.345 211.481C150.345 210.594 150.152 209.804 149.767 209.11C149.42 208.415 148.706 208.068 147.626 208.068ZM165.212 206.159C166.601 206.159 167.893 206.333 169.088 206.68C170.284 207.027 171.479 207.49 172.675 208.068L170.708 214.663H169.435L168.105 207.374L169.667 209.457C168.664 208.955 167.758 208.589 166.948 208.358C166.177 208.088 165.386 207.953 164.576 207.953C163.149 207.953 162.031 208.338 161.221 209.11C160.45 209.881 160.064 210.845 160.064 212.002C160.064 213.352 160.565 214.47 161.568 215.357C162.571 216.244 163.689 217.15 164.923 218.076C165.81 218.731 166.659 219.425 167.468 220.158C168.278 220.891 168.934 221.72 169.435 222.646C169.937 223.533 170.187 224.612 170.187 225.885C170.187 227.389 169.744 228.719 168.857 229.876C168.008 231.033 166.774 231.939 165.155 232.595C163.573 233.251 161.703 233.578 159.544 233.578C158.232 233.578 156.883 233.424 155.494 233.116C154.106 232.846 152.853 232.441 151.734 231.901L153.585 224.728H154.858L155.899 232.132L155.147 230.455C156.111 230.918 156.998 231.245 157.808 231.438C158.618 231.631 159.409 231.727 160.18 231.727C161.8 231.727 163.111 231.361 164.113 230.628C165.116 229.857 165.617 228.835 165.617 227.562C165.617 226.637 165.367 225.827 164.865 225.133C164.403 224.4 163.786 223.725 163.014 223.108C162.243 222.453 161.433 221.816 160.585 221.199C159.312 220.235 158.155 219.194 157.114 218.076C156.111 216.919 155.61 215.492 155.61 213.795C155.61 212.368 155.996 211.076 156.767 209.919C157.577 208.762 158.714 207.856 160.18 207.201C161.645 206.506 163.323 206.159 165.212 206.159ZM182.898 206.159C184.287 206.159 185.579 206.333 186.774 206.68C187.97 207.027 189.165 207.49 190.361 208.068L188.394 214.663H187.121L185.791 207.374L187.353 209.457C186.35 208.955 185.444 208.589 184.634 208.358C183.863 208.088 183.072 207.953 182.262 207.953C180.835 207.953 179.717 208.338 178.907 209.11C178.136 209.881 177.75 210.845 177.75 212.002C177.75 213.352 178.251 214.47 179.254 215.357C180.257 216.244 181.375 217.15 182.609 218.076C183.496 218.731 184.345 219.425 185.154 220.158C185.964 220.891 186.62 221.72 187.121 222.646C187.623 223.533 187.873 224.612 187.873 225.885C187.873 227.389 187.43 228.719 186.543 229.876C185.694 231.033 184.46 231.939 182.841 232.595C181.259 233.251 179.389 233.578 177.23 233.578C175.918 233.578 174.569 233.424 173.18 233.116C171.792 232.846 170.539 232.441 169.42 231.901L171.271 224.728H172.544L173.585 232.132L172.833 230.455C173.797 230.918 174.684 231.245 175.494 231.438C176.304 231.631 177.095 231.727 177.866 231.727C179.486 231.727 180.797 231.361 181.799 230.628C182.802 229.857 183.303 228.835 183.303 227.562C183.303 226.637 183.053 225.827 182.551 225.133C182.089 224.4 181.472 223.725 180.7 223.108C179.929 222.453 179.119 221.816 178.271 221.199C176.998 220.235 175.841 219.194 174.8 218.076C173.797 216.919 173.296 215.492 173.296 213.795C173.296 212.368 173.682 211.076 174.453 209.919C175.263 208.762 176.4 207.856 177.866 207.201C179.331 206.506 181.009 206.159 182.898 206.159Z" fill="#121212"/>
</g>
<defs>
<filter id="filter0_d_441_185" x="0" y="0" width="298" height="298" filterUnits="userSpaceOnUse" color-interpolation-filters="sRGB">
<feFlood flood-opacity="0" result="BackgroundImageFix"/>
<feColorMatrix in="SourceAlpha" type="matrix" values="0 0 0 0 0 0 0 0 0 0 0 0 0 0 0 0 0 0 127 0" result="hardAlpha"/>
<feOffset dx="2" dy="4"/>
<feGaussianBlur stdDeviation="4"/>
<feComposite in2="hardAlpha" operator="out"/>
<feColorMatrix type="matrix" values="0 0 0 0 0 0 0 0 0 0 0 0 0 0 0 0 0 0 0.4 0"/>
<feBlend mode="normal" in2="BackgroundImageFix" result="effect1_dropShadow_441_185"/>
<feBlend mode="normal" in="SourceGraphic" in2="effect1_dropShadow_441_185" result="shape"/>
</filter>
<filter id="filter1_d_441_185" x="185.056" y="73.5762" width="85.8895" height="129.786" filterUnits="userSpaceOnUse" color-interpolation-filters="sRGB">
<feFlood flood-opacity="0" result="BackgroundImageFix"/>
<feColorMatrix in="SourceAlpha" type="matrix" values="0 0 0 0 0 0 0 0 0 0 0 0 0 0 0 0 0 0 127 0" result="hardAlpha"/>
<feOffset dx="1.59706" dy="3.19412"/>
<feGaussianBlur stdDeviation="2.39559"/>
<feComposite in2="hardAlpha" operator="out"/>
<feColorMatrix type="matrix" values="0 0 0 0 0 0 0 0 0 0 0 0 0 0 0 0 0 0 0.5 0"/>
<feBlend mode="normal" in2="BackgroundImageFix" result="effect1_dropShadow_441_185"/>
<feBlend mode="normal" in="SourceGraphic" in2="effect1_dropShadow_441_185" result="shape"/>
</filter>
<filter id="filter2_d_441_185" x="38.0559" y="46.9457" width="80.0584" height="127.054" filterUnits="userSpaceOnUse" color-interpolation-filters="sRGB">
<feFlood flood-opacity="0" result="BackgroundImageFix"/>
<feColorMatrix in="SourceAlpha" type="matrix" values="0 0 0 0 0 0 0 0 0 0 0 0 0 0 0 0 0 0 127 0" result="hardAlpha"/>
<feOffset dx="1.59706" dy="3.19412"/>
<feGaussianBlur stdDeviation="2.39559"/>
<feComposite in2="hardAlpha" operator="out"/>
<feColorMatrix type="matrix" values="0 0 0 0 0 0 0 0 0 0 0 0 0 0 0 0 0 0 0.5 0"/>
<feBlend mode="normal" in2="BackgroundImageFix" result="effect1_dropShadow_441_185"/>
<feBlend mode="normal" in="SourceGraphic" in2="effect1_dropShadow_441_185" result="shape"/>
</filter>
<filter id="filter3_d_441_185" x="137.383" y="67.2875" width="85.1732" height="124.19" filterUnits="userSpaceOnUse" color-interpolation-filters="sRGB">
<feFlood flood-opacity="0" result="BackgroundImageFix"/>
<feColorMatrix in="SourceAlpha" type="matrix" values="0 0 0 0 0 0 0 0 0 0 0 0 0 0 0 0 0 0 127 0" result="hardAlpha"/>
<feOffset dx="1.59706" dy="3.19412"/>
<feGaussianBlur stdDeviation="2.39559"/>
<feComposite in2="hardAlpha" operator="out"/>
<feColorMatrix type="matrix" values="0 0 0 0 0 0 0 0 0 0 0 0 0 0 0 0 0 0 0.5 0"/>
<feBlend mode="normal" in2="BackgroundImageFix" result="effect1_dropShadow_441_185"/>
<feBlend mode="normal" in="SourceGraphic" in2="effect1_dropShadow_441_185" result="shape"/>
</filter>
<filter id="filter4_d_441_185" x="85.6125" y="40.5567" width="79.9188" height="121.315" filterUnits="userSpaceOnUse" color-interpolation-filters="sRGB">
<feFlood flood-opacity="0" result="BackgroundImageFix"/>
<feColorMatrix in="SourceAlpha" type="matrix" values="0 0 0 0 0 0 0 0 0 0 0 0 0 0 0 0 0 0 127 0" result="hardAlpha"/>
<feOffset dx="1.59706" dy="3.19412"/>
<feGaussianBlur stdDeviation="2.39559"/>
<feComposite in2="hardAlpha" operator="out"/>
<feColorMatrix type="matrix" values="0 0 0 0 0 0 0 0 0 0 0 0 0 0 0 0 0 0 0.5 0"/>
<feBlend mode="normal" in2="BackgroundImageFix" result="effect1_dropShadow_441_185"/>
<feBlend mode="normal" in="SourceGraphic" in2="effect1_dropShadow_441_185" result="shape"/>
</filter>
</defs>
</svg>
