<svg preserveAspectRatio="none" width="100%" height="100%" overflow="visible" style="display: block;" viewBox="0 0 160.634 153.663" fill="none" xmlns="http://www.w3.org/2000/svg">
<g id="EXTRAS">
<path id="Vector" d="M122.245 79.489C117.048 91.9031 150.542 94.2947 142.659 113.126C139.32 121.102 131.298 122.536 119.569 117.627C106.818 112.289 101.508 104.71 105.701 94.6944L115.565 98.8236C112.301 106.62 116.083 111.939 122.338 114.557C126.97 116.496 131.387 115.737 133.044 111.779C138.215 99.4249 104.897 96.6135 112.63 78.1423C116.044 69.9861 123.991 68.7317 135.72 73.6414C148.471 78.9791 153.78 86.5583 149.588 96.5736L139.724 92.4444C142.987 84.6481 139.206 79.3295 132.95 76.711C128.319 74.7722 123.952 75.4109 122.245 79.489Z" fill="#F7567C"/>
<path id="Vector_2" d="M76.7939 103.373H92.3579L110.635 153.663H99.4974L95.2137 141.809H73.9381L69.6544 153.663H58.5168L76.7939 103.373ZM75.5088 137.498H93.6431L84.5759 112.569L75.5088 137.498Z" fill="#F7567C"/>
<path id="Vector_3" d="M52.5485 95.245C59.8811 95.2413 68.8162 98.3424 75.2877 110.881L64.8983 116.243C56.7917 95.7016 41.3752 102.751 34.7321 102.626L46.6273 125.673L38.0292 130.111L16.4576 88.3145L43.7446 74.2313C56.2238 67.7906 66.0428 83.5924 52.5485 95.245ZM43.8851 82.8544L22.3898 93.9484C22.3898 93.9484 29.9631 103.348 43.3976 96.414C55.7574 90.035 50.3337 79.5262 43.8851 82.8544Z" fill="#F7567C"/>
<path id="Vector_4" d="M90.5916 10.9568L148.865 0L150.799 10.2827L128.097 14.5512L137.932 66.8587L125.062 69.2787L115.227 16.9711L92.525 21.2395L90.5916 10.9568Z" fill="#F7567C"/>
<path id="Vector_5" d="M85.4795 37.0833H97.5722C101.749 45.5307 97.7592 58.0156 85.9782 60.9971L99.8162 80.5629H88.8455L74.0725 59.7548C66.4679 62.6741 66.5302 74.2894 72.3895 80.5629H60.2969C56.1205 72.1154 60.1099 59.6306 71.8909 56.6491L58.0529 37.0833H69.0859L83.7965 57.8914C91.4012 54.972 91.3389 43.3568 85.4795 37.0833Z" fill="#F7567C"/>
<path id="Vector_6" d="M2.34563e-05 61.9375L11.9568 3.25308L59.8899 13.0193L57.9256 22.6603L13.3562 13.5794C11.8701 20.8731 14.3575 27.5793 23.9441 29.5325L51.863 35.2209L49.9158 44.7781L28.3039 40.3747C24.1833 39.5352 20.721 38.0439 17.8999 35.9847L14.0738 54.7638L49.8975 62.0627L47.9331 71.7038L2.34563e-05 61.9375Z" fill="#F7567C"/>
</g>
</svg>
