<svg preserveAspectRatio="none" width="100%" height="100%" overflow="visible" style="display: block;" viewBox="0 0 160.676 157.269" fill="none" xmlns="http://www.w3.org/2000/svg">
<g id="EXTRAS">
<path id="Vector" d="M122.461 76.5755C116.522 90.761 154.796 93.4938 145.788 115.012C141.972 124.126 132.805 125.765 119.403 120.155C104.832 114.056 98.7651 105.395 103.556 93.9506L114.827 98.669C111.098 107.578 115.42 113.655 122.568 116.648C127.86 118.863 132.907 117.996 134.801 113.473C140.71 99.3561 102.638 96.1435 111.473 75.0366C115.375 65.7166 124.456 64.2831 137.858 69.8935C152.429 75.9929 158.496 84.6536 153.705 96.0979L142.434 91.3795C146.163 82.4707 141.842 76.3932 134.694 73.401C129.402 71.1857 124.411 71.9155 122.461 76.5755Z" fill="#F7567C"/>
<path id="Vector_2" d="M79.2015 106.979H94.7655L113.043 157.269H101.905L97.6213 145.415H76.3457L72.062 157.269H60.9244L79.2015 106.979ZM77.9164 141.104H96.0507L86.9835 116.175L77.9164 141.104Z" fill="#F7567C"/>
<path id="Vector_3" d="M50.8043 108.819C56.0405 108.816 62.421 111.031 67.0423 119.985L59.6233 123.814C53.8344 109.145 42.8255 114.179 38.0817 114.09L46.576 130.548L40.4362 133.717L25.032 103.87L44.5175 93.8134C53.4289 89.2141 60.4406 100.498 50.8043 108.819ZM44.6179 99.9711L29.2682 107.893C29.2682 107.893 34.6762 114.605 44.2698 109.654C53.0958 105.099 49.2228 97.5944 44.6179 99.9711Z" fill="#F7567C"/>
<path id="Vector_4" d="M102.07 9.1239L150.595 8.52171e-05L152.205 8.56253L133.301 12.1169L141.491 55.6737L130.774 57.6888L122.584 14.132L103.68 17.6863L102.07 9.1239Z" fill="#F7567C"/>
<path id="Vector_5" d="M95.5212 40.6891H107.448C111.567 49.1366 107.633 61.6214 96.0131 64.6029L109.661 84.1687H98.8411L84.2705 63.3606C76.77 66.28 76.8315 77.8952 82.6105 84.1687H70.6835C66.5644 75.7213 70.4991 63.2364 82.1187 60.2549L68.4703 40.6891H79.3521L93.8613 61.4972C101.362 58.5779 101.3 46.9626 95.5212 40.6891Z" fill="#F7567C"/>
<path id="Vector_6" d="M0.000143603 77.3599L14.3644 6.85939L71.9488 18.592L69.5889 30.1742L16.0456 19.265C14.2603 28.0272 17.2485 36.0836 28.7653 38.4301L62.3057 45.2639L59.9664 56.7454L34.0029 51.4554C29.0527 50.4468 24.8933 48.6553 21.5042 46.1815L16.9076 68.7417L59.9444 77.5103L57.5845 89.0925L0.000143603 77.3599Z" fill="#F7567C"/>
</g>
</svg>
