<svg preserveAspectRatio="none" width="100%" height="100%" overflow="visible" style="display: block;" viewBox="0 0 159.743 157.456" fill="none" xmlns="http://www.w3.org/2000/svg">
<g id="EXTRAS">
<path id="Vector" d="M121.171 76.6664C115.178 90.8688 153.807 93.6049 144.716 115.149C140.865 124.274 131.612 125.915 118.085 120.298C103.379 114.191 97.2551 105.52 102.09 94.0622L113.467 98.7862C109.703 107.706 114.065 113.79 121.279 116.786C126.621 119.004 131.715 118.136 133.626 113.608C139.591 99.4741 101.164 96.2578 110.082 75.1257C114.02 65.7947 123.185 64.3595 136.712 69.9765C151.419 76.0832 157.542 84.7542 152.707 96.2121L141.331 91.4881C145.095 82.5687 140.733 76.4839 133.518 73.4882C128.177 71.2702 123.14 72.0009 121.171 76.6664Z" fill="#F7567C"/>
<path id="Vector_2" d="M77.509 107.106H93.218L111.665 157.456H100.424L96.1004 145.588H74.6267L70.3031 157.456H59.0618L77.509 107.106ZM76.212 141.272H94.5151L85.3635 116.313L76.212 141.272Z" fill="#F7567C"/>
<path id="Vector_3" d="M53.0377 98.9685C60.4386 98.9647 69.4569 102.07 75.9886 114.623L65.5025 119.992C57.3204 99.4256 41.7603 106.483 35.0554 106.358L47.0614 129.433L38.3832 133.876L16.6107 92.0297L44.1519 77.9298C56.7473 71.4815 66.6577 87.302 53.0377 98.9685ZM44.2937 86.5631L22.5982 97.6703C22.5982 97.6703 30.242 107.081 43.8016 100.139C56.2765 93.7523 50.8023 83.231 44.2937 86.5631Z" fill="#F7567C"/>
<path id="Vector_4" d="M100.591 9.13467L149.567 9.72681e-06L151.192 8.57262L132.112 12.1312L140.378 55.7397L129.562 57.7572L121.296 14.1487L102.216 17.7073L100.591 9.13467Z" fill="#F7567C"/>
<path id="Vector_5" d="M91.3286 32.498H105.758C110.742 42.5469 105.982 57.3986 91.9237 60.9453L108.436 84.2203H95.3452L77.717 59.4675C68.6426 62.9403 68.717 76.7575 75.7088 84.2203H61.279C56.2955 74.1714 61.0558 59.3197 75.1137 55.7731L58.6013 32.498H71.7666L89.3204 57.2508C98.3948 53.778 98.3204 39.9608 91.3286 32.498Z" fill="#F7567C"/>
<path id="Vector_6" d="M0 65.622L12.0681 6.86781L60.4476 16.6456L58.4649 26.2981L13.4805 17.2064C11.9806 24.5087 14.4912 31.2229 24.167 33.1784L52.346 38.8736L50.3806 48.4421L28.5674 44.0335C24.4084 43.193 20.9139 41.6999 18.0666 39.6384L14.2048 58.4397L50.3621 65.7473L48.3795 75.3998L0 65.622Z" fill="#F7567C"/>
</g>
</svg>
