<svg preserveAspectRatio="none" width="100%" height="100%" overflow="visible" style="display: block;" viewBox="0 0 163.657 157.269" fill="none" xmlns="http://www.w3.org/2000/svg">
<g id="EXTRAS">
<path id="Vector" d="M115.472 62.9543C107.985 80.8405 156.242 84.2863 144.885 111.418C140.074 122.91 128.515 124.977 111.617 117.903C93.2451 110.212 85.595 99.2921 91.6355 84.8622L105.848 90.8116C101.145 102.044 106.594 109.707 115.607 113.48C122.28 116.274 128.644 115.18 131.031 109.478C138.483 91.6779 90.478 87.6272 101.619 61.014C106.538 49.2627 117.988 47.4553 134.887 54.5292C153.258 62.2198 160.908 73.1398 154.868 87.5698L140.656 81.6204C145.358 70.3876 139.909 62.7245 130.897 58.9518C124.224 56.1585 117.932 57.0787 115.472 62.9543Z" fill="#F7567C"/>
<path id="Vector_2" d="M76.7939 106.979H92.358L110.635 157.269H99.4975L95.2138 145.415H73.9382L69.6545 157.269H58.5169L76.7939 106.979ZM75.5088 141.104H93.6431L84.576 116.175L75.5088 141.104Z" fill="#F7567C"/>
<path id="Vector_3" d="M52.5485 98.8509C59.8811 98.8471 68.8162 101.948 75.2877 114.487L64.8983 119.849C56.7917 99.3074 41.3752 106.357 34.7321 106.231L46.6273 129.279L38.0292 133.717L16.4576 91.9203L43.7447 77.8371C56.2239 71.3965 66.0429 87.1982 52.5485 98.8509ZM43.8851 86.4602L22.3899 97.5542C22.3899 97.5542 29.9631 106.954 43.3977 100.02C55.7575 93.6408 50.3337 83.132 43.8851 86.4602Z" fill="#F7567C"/>
<path id="Vector_4" d="M107.648 7.62271L148.188 9.00722e-05L149.533 7.1537L133.74 10.1232L140.582 46.5133L131.628 48.1969L124.786 11.8068L108.993 14.7763L107.648 7.62271Z" fill="#F7567C"/>
<path id="Vector_5" d="M85.48 32.6796H97.5727C101.749 41.127 97.7597 53.6119 85.9787 56.5933L99.8167 76.1592H88.8461L74.0731 55.3511C66.4684 58.2704 66.5307 69.8857 72.3901 76.1592H60.2974C56.1211 67.7117 60.1104 55.2268 71.8914 52.2454L58.0534 32.6796H69.0864L83.7971 53.4876C91.4017 50.5683 91.3394 38.953 85.48 32.6796Z" fill="#F7567C"/>
<path id="Vector_6" d="M6.5418e-05 65.5434L11.9568 6.85892L59.89 16.6251L57.9256 26.2662L13.3562 17.1853C11.8702 24.4789 14.3575 31.1851 23.9441 33.1383L51.8631 38.8267L49.9158 48.3839L28.3039 43.9805C24.1833 43.141 20.721 41.6497 17.9 39.5906L14.0738 58.3696L49.8975 65.6686L47.9332 75.3096L6.5418e-05 65.5434Z" fill="#F7567C"/>
</g>
</svg>
