<svg preserveAspectRatio="none" width="100%" height="100%" overflow="visible" style="display: block;" viewBox="0 0 155.347 157.397" fill="none" xmlns="http://www.w3.org/2000/svg">
<g id="EXTRAS">
<path id="Vector" d="M117.131 76.5755C111.193 90.761 149.466 93.4938 140.458 115.012C136.643 124.126 127.476 125.765 114.074 120.155C99.5029 114.056 93.4356 105.395 98.2263 93.9506L109.498 98.669C105.769 107.578 110.09 113.655 117.238 116.648C122.53 118.863 127.578 117.996 129.471 113.473C135.381 99.3561 97.3083 96.1435 106.144 75.0366C110.045 65.7166 119.127 64.2831 132.529 69.8935C147.099 75.9929 153.167 84.6536 148.376 96.0979L137.104 91.3795C140.834 82.4707 136.512 76.3932 129.364 73.401C124.072 71.1857 119.082 71.9155 117.131 76.5755Z" fill="#F7567C"/>
<path id="Vector_2" d="M78.4195 113.918H91.9163L107.766 157.397H98.1076L94.3928 147.149H75.943L72.2283 157.397H62.57L78.4195 113.918ZM77.3051 143.422H93.0308L85.1679 121.868L77.3051 143.422Z" fill="#F7567C"/>
<path id="Vector_3" d="M54.9367 86.1001C64.9509 86.095 77.1536 90.3302 85.9918 107.455L71.8029 114.778C60.7316 86.7236 39.6772 96.3508 30.6048 96.1797L46.8501 127.656L35.1076 133.717L5.64714 76.635L42.9132 57.4015C59.9562 48.6055 73.366 70.186 54.9367 86.1001ZM43.1051 69.1781L13.7489 84.3292C13.7489 84.3292 24.0917 97.1661 42.4394 87.6966C59.3192 78.9847 51.912 64.6328 43.1051 69.1781Z" fill="#F7567C"/>
<path id="Vector_4" d="M96.7417 9.1239L145.266 8.52171e-05L146.876 8.56253L127.973 12.1169L136.162 55.6737L125.445 57.6888L117.255 14.132L98.3516 17.6863L96.7417 9.1239Z" fill="#F7567C"/>
<path id="Vector_5" d="M90.9777 32.6795H102.242C106.132 40.5713 102.416 52.2347 91.4422 55.02L104.332 73.2986H94.1131L80.352 53.8595C73.2682 56.5868 73.3262 67.4379 78.7842 73.2986H67.5198C63.6296 65.4069 67.3456 53.7434 78.3197 50.9581L65.4295 32.6795H75.7068L89.4099 52.1187C96.4937 49.3914 96.4357 38.5403 90.9777 32.6795Z" fill="#F7567C"/>
<path id="Vector_6" d="M0 51.2033L9.03493 6.85939L45.2548 14.2391L43.7705 21.5241L10.0924 14.6623C8.96945 20.1736 10.849 25.241 18.0929 26.717L39.1894 31.0153L37.718 38.237L21.3873 34.9097C18.2737 34.2753 15.6575 33.1485 13.5258 31.5925L10.6346 45.7826L37.7041 51.2979L36.2198 58.583L0 51.2033Z" fill="#F7567C"/>
</g>
</svg>
