<svg preserveAspectRatio="none" width="100%" height="100%" overflow="visible" style="display: block;" viewBox="0 0 30 30" fill="none" xmlns="http://www.w3.org/2000/svg">
<g id="linkedin">
<path id="Vector" d="M14.6073 0.00524353C22.8952 -0.211794 29.7873 6.3358 29.9952 14.6239C30.2031 22.912 23.6479 29.7968 15.3596 29.9956C7.0842 30.1941 0.21238 23.6513 0.00481093 15.3761C-0.202762 7.10099 6.3324 0.221941 14.6073 0.00524353ZM7.27183 9.2921C7.40154 10.2632 8.28867 10.9491 9.26114 10.8301C10.2438 10.7098 10.9417 9.81396 10.8179 8.83172C10.694 7.84951 9.79556 7.15495 8.81381 7.28238C7.83208 7.40984 7.14078 8.31082 7.27183 9.2921ZM19.3219 22.2346L19.3411 22.3091C19.6461 22.3872 21.3921 22.3327 21.8218 22.3335L22.2503 22.34C22.2281 21.7489 22.2379 21.0896 22.2367 20.4943C22.0776 20.3167 21.6835 20.1997 21.4654 20.1329C20.9841 19.9857 19.7043 20.2384 19.319 20.4882C19.3182 20.9475 19.289 21.808 19.3219 22.2346Z" fill="#121212"/>
<path id="Vector_2" d="M15.2201 13.7715C15.951 12.6696 17.0065 12.1904 18.3095 12.1856C19.2561 12.1821 19.9512 12.2426 20.7582 12.7847C22.4371 13.9125 22.253 15.3816 22.2501 17.1453C22.2544 18.2616 22.25 19.378 22.2368 20.4942C22.0777 20.3167 21.6836 20.1996 21.4655 20.1329C20.9842 19.9856 19.7044 20.2383 19.3191 20.4882L19.3189 18.4378C19.3208 17.4636 19.4758 16.1795 18.7156 15.4394C17.6108 14.3635 15.6056 15.0169 15.3115 16.5354C15.1805 17.2391 15.236 18.1156 15.2363 18.8445L15.2402 22.3359L12.2919 22.3361L12.2899 15.7967C12.2899 14.6497 12.2729 13.4469 12.2953 12.3047L15.2473 12.3017C15.2431 12.727 15.2571 13.3667 15.2201 13.7715Z" fill="#A4CF4A"/>
<path id="Vector_3" d="M7.5565 12.3048C8.55466 12.2978 9.55282 12.2977 10.551 12.3045C10.4965 15.5873 10.5368 19.0434 10.5442 22.335L7.55794 22.3366L7.5565 12.3048Z" fill="#A4CF4A"/>
<path id="Vector_4" d="M7.27178 9.29211C7.14073 8.31084 7.83203 7.40986 8.81376 7.28239C9.79551 7.15496 10.6939 7.84953 10.8178 8.83174C10.9416 9.81397 10.2438 10.7098 9.26109 10.8301C9.12024 10.8006 8.93536 10.8133 8.79005 10.7923C8.13316 10.6974 7.69896 10.3231 7.47919 9.70881C7.46506 9.66934 7.37714 9.57578 7.37454 9.55623C7.36147 9.45838 7.33561 9.36264 7.30588 9.26763L7.27178 9.29211Z" fill="#A4CF4A"/>
<path id="Vector_5" d="M19.3189 20.4883C19.7042 20.2384 20.984 19.9857 21.4653 20.1329C21.6834 20.1997 22.0775 20.3168 22.2366 20.4943C22.2378 21.0896 22.228 21.7489 22.2502 22.34L21.8217 22.3335C21.8054 22.3147 21.789 22.2963 21.7704 22.2795C21.6442 22.1652 19.6733 22.2256 19.3218 22.2346C19.2889 21.808 19.3181 20.9475 19.3189 20.4883Z" fill="#A4CF4A"/>
<path id="Vector_6" d="M19.3217 22.2347C19.6732 22.2257 21.6441 22.1654 21.7703 22.2796C21.7888 22.2964 21.8053 22.3148 21.8216 22.3336C21.3919 22.3329 19.6458 22.3873 19.3409 22.3093L19.3217 22.2347Z" fill="#A4CF4A"/>
<path id="Vector_7" d="M7.27186 9.292L7.30595 9.26752C7.33569 9.36252 7.36155 9.45827 7.37462 9.55612C7.37721 9.57567 7.46514 9.66923 7.47927 9.7087C7.69904 10.323 8.13324 10.6973 8.79012 10.7922C8.93543 10.8131 9.12031 10.8005 9.26117 10.83C8.2887 10.949 7.40157 10.2631 7.27186 9.292Z" fill="#A4CF4A"/>
</g>
</svg>
