<svg preserveAspectRatio="none" width="100%" height="100%" overflow="visible" style="display: block;" viewBox="0 0 30 30" fill="none" xmlns="http://www.w3.org/2000/svg">
<g id="mail">
<circle id="Ellipse 147" cx="15" cy="15" r="15" fill="#121212"/>
<path id="Vector" d="M8.16025 9.88116C7.66586 9.88116 7.14098 9.87224 6.64844 9.88303C7.169 10.3692 13.5 16.5 15 16.5C16.5 16.5 22.9714 10.2087 23.3741 9.87695C22.1372 9.9081 20.798 9.88214 19.5543 9.88201L10.9824 9.88123L8.16025 9.88116Z" fill="#A4CF4A"/>
<g id="Vector_2">
</g>
<g id="Vector_3">
</g>
<path id="Vector_4" d="M11.5034 14.647C11.8217 14.9192 12.2003 15.2522 12.5056 15.5312C13.265 16.2248 13.9327 16.6845 15.0043 16.6869C16.1662 16.6895 16.8689 16.1218 17.6769 15.3794C17.9356 15.1416 18.2589 14.889 18.5059 14.6414C18.5816 14.7501 18.9221 15.1103 19.0275 15.2261L20.1154 16.4206C21.2435 17.6595 22.3748 18.9342 23.5162 20.1573C22.543 20.1697 21.545 20.1583 20.5697 20.1585L6.49951 20.1593C6.90437 19.6941 7.34777 19.2225 7.76354 18.7651L10.1959 16.0908C10.619 15.6264 11.0986 15.1213 11.5034 14.647Z" fill="#A4CF4A"/>
<path id="Vector_5" d="M23.7366 10.126C23.7735 10.1722 23.7596 11.1381 23.7596 11.2697L23.7598 13.3688L23.7591 19.7828C23.0368 18.9479 22.2092 18.0731 21.4618 17.2512L19.7948 15.4164C19.5123 15.1055 19.1755 14.7142 18.8838 14.4221C19.8905 13.561 20.9156 12.6289 21.9105 11.7486L23.0875 10.7088C23.2892 10.5307 23.5493 10.3134 23.7366 10.126Z" fill="#A4CF4A"/>
<path id="Vector_6" d="M6.25692 10.123C6.30644 10.1525 6.55201 10.3776 6.61435 10.4331L7.43457 11.1619L9.79376 13.2467C10.2261 13.6294 10.6887 14.0551 11.1297 14.422C10.8274 14.7262 10.5007 15.1024 10.2085 15.4238L8.59488 17.201L6.25371 19.7793L6.25127 13.8903L6.25094 11.5048C6.25094 11.055 6.24262 10.5705 6.25692 10.123Z" fill="#A4CF4A"/>
</g>
</svg>
