<svg preserveAspectRatio="none" width="100%" height="100%" overflow="visible" style="display: block;" viewBox="0 0 30 30" fill="none" xmlns="http://www.w3.org/2000/svg">
<g id="phone">
<path id="Vector" d="M14.4358 0.0108193C22.7132 -0.300772 29.6763 6.15617 29.9891 14.4336C30.3019 22.711 23.8459 29.6751 15.5685 29.989C7.28947 30.303 0.323749 23.8455 0.0109022 15.5664C-0.301945 7.2873 6.15663 0.322453 14.4358 0.0108193Z" fill="#121212"/>
<path id="Vector_2" d="M10.4543 7.22366C11.5187 7.10964 12.3288 8.36931 13.0694 9.03071C14.7068 10.4929 13.5293 11.3517 12.3326 12.427C13.4091 13.8859 14.3372 15.0239 15.7348 16.1958C16.2958 16.6662 16.9167 17.0866 17.4885 17.5448C19.3902 15.0646 19.8349 15.8 21.7436 17.7386C22.81 18.8217 23.0681 19.1559 21.9339 20.3131C20.5921 21.7007 19.4157 22.2351 17.4678 21.3932C13.9109 19.856 10.4379 16.4997 8.56902 13.1313C8.04885 12.1937 7.86945 10.5478 8.28912 9.55423C8.64395 8.68128 9.5994 7.6067 10.4543 7.22366Z" fill="#A4CF4A"/>
</g>
</svg>
