<svg preserveAspectRatio="none" width="100%" height="100%" overflow="visible" style="display: block;" viewBox="0 0 243.044 235.919" fill="none" xmlns="http://www.w3.org/2000/svg">
<path id="bg" d="M106.221 8.11572C113.552 -2.70524 129.492 -2.70524 136.823 8.11572V8.11572C142.138 15.961 152.526 18.5153 160.873 14.0297L161.592 13.643C172.926 7.55268 186.814 14.9142 188.135 27.7123V27.7123C189.101 37.0677 197.078 44.12 206.482 43.9319L207.493 43.9117C220.271 43.6561 229.113 56.596 224.231 68.4076V68.4076C220.65 77.0697 224.545 87.0772 232.974 91.1766V91.1766C244.56 96.8115 246.615 112.643 236.695 120.863V120.863C229.47 126.849 228.169 137.448 233.748 144.991V144.991C241.366 155.29 235.837 170.02 223.323 172.762L222.581 172.925C213.417 174.933 207.366 183.684 208.721 192.966V192.966C210.57 205.633 198.895 216.08 186.511 212.84L185.513 212.579C176.38 210.191 166.929 215.14 163.691 224.007V224.007C159.245 236.183 143.705 239.832 134.069 231.16V231.16C127.003 224.802 116.041 224.802 108.975 231.16V231.16C99.339 239.832 83.7994 236.183 79.3526 224.007V224.007C76.1146 215.14 66.6638 210.191 57.5315 212.579L56.5331 212.84C44.1492 216.08 32.4743 205.633 34.3233 192.966V192.966C35.6784 183.684 29.6266 174.933 20.4631 172.925L19.7206 172.762C7.20697 170.02 1.67764 155.29 9.29563 144.991V144.991C14.875 137.448 13.5744 126.849 6.34946 120.863V120.863C-3.57145 112.643 -1.51583 96.8115 10.0701 91.1766V91.1766C18.4989 87.0772 22.3935 77.0697 18.8132 68.4076V68.4076C13.931 56.596 22.7727 43.6561 35.5509 43.9117L36.5623 43.9319C45.9655 44.12 53.9426 37.0677 54.9086 27.7123V27.7123C56.2301 14.9142 70.1184 7.55267 81.4518 13.643L82.1713 14.0297C90.5185 18.5153 100.906 15.961 106.221 8.11572V8.11572Z" fill="#FEFEFE"/>
</svg>
