<svg preserveAspectRatio="none" width="100%" height="100%" overflow="visible" style="display: block;" viewBox="0 0 220.572 220.572" fill="none" xmlns="http://www.w3.org/2000/svg">
<path id="card" d="M87.2904 15.4498C95.7008 -5.1499 124.871 -5.14995 133.282 15.4498L150.164 56.8007C152.688 62.9804 157.592 67.8846 163.772 70.4077L205.122 87.2904C225.722 95.7008 225.722 124.871 205.122 133.282L163.772 150.164C157.592 152.688 152.688 157.592 150.165 163.772L133.282 205.122C124.871 225.722 95.7009 225.722 87.2904 205.122L70.4077 163.772C67.8846 157.592 62.9804 152.688 56.8007 150.165L15.4498 133.282C-5.1499 124.871 -5.14995 95.7009 15.4498 87.2904L56.8007 70.4077C62.9804 67.8846 67.8846 62.9804 70.4077 56.8007L87.2904 15.4498Z" fill="#F7567C"/>
</svg>
