<svg preserveAspectRatio="none" overflow="visible" style="display: block;" width="74.5924" height="78.9873" viewBox="0 0 74.5924 78.9873" fill="none" xmlns="http://www.w3.org/2000/svg">
<g id="flower">
<g id="Union">
<mask id="path-1-inside-1_0_19" fill="white">
<path d="M36.4668 0C42.2107 0.000504576 46.8702 9.26506 46.918 20.7305C47.6178 20.1645 48.3474 19.6096 49.1074 19.0732C58.542 12.415 68.8894 10.8415 72.2188 15.5586C75.5479 20.2759 70.5987 29.4979 61.1641 36.1562C59.9646 37.0028 58.7498 37.7666 57.5371 38.4463C58.5592 38.9023 59.5868 39.4099 60.6104 39.9717C70.7331 45.5278 76.6877 54.1347 73.9102 59.1963C71.132 64.2578 60.6729 63.857 50.5498 58.3008C49.2511 57.588 48.0219 56.8237 46.8701 56.0244C46.9031 56.7003 46.9209 57.3859 46.9209 58.0791C46.9208 69.6265 42.2405 78.9872 36.4668 78.9873C30.693 78.9873 26.0128 69.6266 26.0127 58.0791C26.0127 57.9458 26.0154 57.8124 26.0166 57.6797C16.6173 64.2603 6.35185 65.8 3.03809 61.1045C-0.290639 56.387 4.65919 47.1651 14.0938 40.5068C14.622 40.134 15.1539 39.7782 15.6865 39.4375C15.1185 39.1586 14.5487 38.8651 13.9814 38.5537C3.85874 32.9975 -2.09532 24.3906 0.682617 19.3291C3.46071 14.2676 13.919 14.6685 24.042 20.2246C24.7198 20.5966 25.3785 20.9835 26.0176 21.3809C26.0158 21.2238 26.0117 21.0661 26.0117 20.9082C26.0118 9.36064 30.693 0 36.4668 0Z"/>
</mask>
<path d="M36.4668 0C42.2107 0.000504576 46.8702 9.26506 46.918 20.7305C47.6178 20.1645 48.3474 19.6096 49.1074 19.0732C58.542 12.415 68.8894 10.8415 72.2188 15.5586C75.5479 20.2759 70.5987 29.4979 61.1641 36.1562C59.9646 37.0028 58.7498 37.7666 57.5371 38.4463C58.5592 38.9023 59.5868 39.4099 60.6104 39.9717C70.7331 45.5278 76.6877 54.1347 73.9102 59.1963C71.132 64.2578 60.6729 63.857 50.5498 58.3008C49.2511 57.588 48.0219 56.8237 46.8701 56.0244C46.9031 56.7003 46.9209 57.3859 46.9209 58.0791C46.9208 69.6265 42.2405 78.9872 36.4668 78.9873C30.693 78.9873 26.0128 69.6266 26.0127 58.0791C26.0127 57.9458 26.0154 57.8124 26.0166 57.6797C16.6173 64.2603 6.35185 65.8 3.03809 61.1045C-0.290639 56.387 4.65919 47.1651 14.0938 40.5068C14.622 40.134 15.1539 39.7782 15.6865 39.4375C15.1185 39.1586 14.5487 38.8651 13.9814 38.5537C3.85874 32.9975 -2.09532 24.3906 0.682617 19.3291C3.46071 14.2676 13.919 14.6685 24.042 20.2246C24.7198 20.5966 25.3785 20.9835 26.0176 21.3809C26.0158 21.2238 26.0117 21.0661 26.0117 20.9082C26.0118 9.36064 30.693 0 36.4668 0Z" fill="#F3F1ED"/>
<path d="M36.4668 0L36.4669 -1.63237H36.4668V0ZM46.918 20.7305L45.2856 20.7373L45.2998 24.1384L47.9444 21.9997L46.918 20.7305ZM49.1074 19.0732L48.1662 17.7396L48.1662 17.7396L49.1074 19.0732ZM72.2188 15.5586L73.5524 14.6174L73.5524 14.6173L72.2188 15.5586ZM61.1641 36.1562L62.1053 37.4899L62.1053 37.4899L61.1641 36.1562ZM57.5371 38.4463L56.739 37.0223L53.9025 38.612L56.872 39.937L57.5371 38.4463ZM60.6104 39.9717L61.3958 38.5407L61.3958 38.5407L60.6104 39.9717ZM73.9102 59.1963L75.3411 59.9817L75.3412 59.9816L73.9102 59.1963ZM50.5498 58.3008L49.7644 59.7318L49.7644 59.7318L50.5498 58.3008ZM46.8701 56.0244L47.8008 54.6833L45.0783 52.794L45.2397 56.1039L46.8701 56.0244ZM46.9209 58.0791L48.5533 58.0791V58.0791H46.9209ZM36.4668 78.9873V80.6197H36.4668L36.4668 78.9873ZM26.0127 58.0791H24.3803V58.0791L26.0127 58.0791ZM26.0166 57.6797L27.6489 57.695L27.6786 54.5235L25.0804 56.3425L26.0166 57.6797ZM3.03809 61.1045L1.70433 62.0456L1.7044 62.0457L3.03809 61.1045ZM14.0938 40.5068L13.1525 39.1731L13.1525 39.1731L14.0938 40.5068ZM15.6865 39.4375L16.5662 40.8126L19.0084 39.2503L16.4061 37.9723L15.6865 39.4375ZM13.9814 38.5537L13.196 39.9847L13.196 39.9847L13.9814 38.5537ZM0.682617 19.3291L-0.748372 18.5437L-0.748389 18.5437L0.682617 19.3291ZM24.042 20.2246L24.8274 18.7936L24.8274 18.7936L24.042 20.2246ZM26.0176 21.3809L25.1556 22.7671L27.6828 24.3387L27.6498 21.3628L26.0176 21.3809ZM26.0117 20.9082L24.3794 20.9082V20.9082H26.0117ZM36.4668 0L36.4667 1.63237C38.3918 1.63254 40.57 3.22615 42.3706 6.80031C44.1231 10.279 45.2625 15.2018 45.2856 20.7373L46.918 20.7305L48.5503 20.7237C48.5256 14.7938 47.3114 9.35151 45.2863 5.33148C43.3092 1.40688 40.2857 -1.63203 36.4669 -1.63237L36.4668 0ZM46.918 20.7305L47.9444 21.9997C48.6186 21.4545 49.3198 20.9213 50.0486 20.4069L49.1074 19.0732L48.1662 17.7396C47.3749 18.298 46.617 18.8745 45.8915 19.4612L46.918 20.7305ZM49.1074 19.0732L50.0486 20.4069C54.6038 17.1922 59.3154 15.2544 63.198 14.664C67.1885 14.0571 69.769 14.9186 70.8851 16.4999L72.2188 15.5586L73.5524 14.6173C71.3391 11.4815 67.0813 10.7712 62.7071 11.4363C58.2251 12.1179 53.0457 14.296 48.1662 17.7396L49.1074 19.0732ZM72.2188 15.5586L70.8851 16.4998C72.0011 18.0812 71.9482 20.8011 70.0395 24.3576C68.1824 27.8179 64.778 31.6078 60.2228 34.8226L61.1641 36.1562L62.1053 37.4899C66.9848 34.0463 70.7723 29.8961 72.9161 25.9015C75.0084 22.0031 75.7656 17.7533 73.5524 14.6174L72.2188 15.5586ZM61.1641 36.1562L60.2228 34.8226C59.0694 35.6365 57.9024 36.3703 56.739 37.0223L57.5371 38.4463L58.3352 39.8703C59.5971 39.163 60.8597 38.369 62.1053 37.4899L61.1641 36.1562ZM57.5371 38.4463L56.872 39.937C57.8544 40.3753 58.8418 40.8631 59.8249 41.4027L60.6104 39.9717L61.3958 38.5407C60.3319 37.9567 59.2641 37.4294 58.2023 36.9556L57.5371 38.4463ZM60.6104 39.9717L59.8249 41.4027C64.7124 44.0852 68.5211 47.4685 70.7554 50.6981C73.0519 54.0175 73.4102 56.7142 72.4791 58.411L73.9102 59.1963L75.3412 59.9816C77.1876 56.6167 75.9574 52.4792 73.4403 48.8407C70.861 45.1124 66.6311 41.4142 61.3958 38.5407L60.6104 39.9717ZM73.9102 59.1963L72.4792 58.4109C71.5479 60.1076 69.0805 61.2536 65.0469 61.099C61.1224 60.9486 56.2228 59.5524 51.3352 56.8698L50.5498 58.3008L49.7644 59.7318C54.9999 62.6054 60.3914 64.1877 64.9218 64.3614C69.3431 64.5308 73.4943 63.3465 75.3411 59.9817L73.9102 59.1963ZM50.5498 58.3008L51.3352 56.8698C50.087 56.1847 48.9062 55.4505 47.8008 54.6833L46.8701 56.0244L45.9395 57.3655C47.1376 58.197 48.4153 58.9913 49.7644 59.7318L50.5498 58.3008ZM46.8701 56.0244L45.2397 56.1039C45.2714 56.7548 45.2885 57.4139 45.2885 58.0791H46.9209H48.5533C48.5533 57.358 48.5347 56.6458 48.5005 55.9449L46.8701 56.0244ZM46.9209 58.0791L45.2885 58.0791C45.2885 63.6543 44.1551 68.621 42.3989 72.1334C40.5939 75.7435 38.4023 77.3549 36.4668 77.3549L36.4668 78.9873L36.4668 80.6197C40.305 80.6196 43.3404 77.5506 45.319 73.5935C47.3464 69.5387 48.5532 64.0513 48.5533 58.0791L46.9209 58.0791ZM36.4668 78.9873V77.3549C34.5313 77.3549 32.3397 75.7436 30.5347 72.1335C28.7785 68.621 27.6451 63.6544 27.6451 58.0791L26.0127 58.0791L24.3803 58.0791C24.3804 64.0513 25.5872 69.5387 27.6146 73.5935C29.5932 77.5507 32.6285 80.6197 36.4668 80.6197V78.9873ZM26.0127 58.0791H27.6451C27.6451 57.9539 27.6474 57.8528 27.6489 57.695L26.0166 57.6797L24.3843 57.6644C24.3833 57.7719 24.3803 57.9377 24.3803 58.0791H26.0127ZM26.0166 57.6797L25.0804 56.3425C20.5423 59.5196 15.8599 61.4304 12.0042 62.0062C8.04245 62.5978 5.48238 61.737 4.37178 60.1633L3.03809 61.1045L1.7044 62.0457C3.90755 65.1675 8.13708 65.8846 12.4864 65.2351C16.9416 64.5698 22.0915 62.4203 26.9528 59.0169L26.0166 57.6797ZM3.03809 61.1045L4.37185 60.1634C3.25598 58.582 3.30901 55.862 5.21797 52.3054C7.07529 48.8451 10.4798 45.0552 15.035 41.8405L14.0938 40.5068L13.1525 39.1731C8.2731 42.6167 4.48546 46.7669 2.34141 50.7614C0.248986 54.6598 -0.508528 58.9095 1.70433 62.0456L3.03809 61.1045ZM14.0938 40.5068L15.035 41.8405C15.5413 41.4832 16.0525 41.1412 16.5662 40.8126L15.6865 39.4375L14.8069 38.0624C14.2553 38.4153 13.7028 38.7848 13.1525 39.1731L14.0938 40.5068ZM15.6865 39.4375L16.4061 37.9723C15.8569 37.7026 15.3094 37.4205 14.7669 37.1227L13.9814 38.5537L13.196 39.9847C13.7881 40.3097 14.3802 40.6145 14.967 40.9027L15.6865 39.4375ZM13.9814 38.5537L14.7669 37.1227C9.87951 34.4401 6.07089 31.0568 3.83675 27.8272C1.54052 24.5078 1.18239 21.8112 2.11362 20.1145L0.682617 19.3291L-0.748389 18.5437C-2.59509 21.9085 -1.36516 26.046 1.15183 29.6845C3.73092 33.4128 7.96068 37.1111 13.196 39.9847L13.9814 38.5537ZM0.682617 19.3291L2.11361 20.1145C3.04489 18.4178 5.5121 17.2718 9.54543 17.4264C13.4697 17.5769 18.3691 18.9731 23.2566 21.6556L24.042 20.2246L24.8274 18.7936C19.5919 15.9201 14.2007 14.3378 9.6705 14.1641C5.24941 13.9946 1.09843 15.1789 -0.748372 18.5437L0.682617 19.3291ZM24.042 20.2246L23.2566 21.6556C23.907 22.0126 24.5403 22.3844 25.1556 22.7671L26.0176 21.3809L26.8796 19.9947C26.2168 19.5825 25.5325 19.1806 24.8274 18.7936L24.042 20.2246ZM26.0176 21.3809L27.6498 21.3628C27.6477 21.1686 27.6441 21.0584 27.6441 20.9082H26.0117H24.3794C24.3794 21.0737 24.384 21.279 24.3853 21.399L26.0176 21.3809ZM26.0117 20.9082L27.6441 20.9082C27.6441 15.3329 28.7777 10.3663 30.5341 6.85386C32.3394 3.24381 34.5312 1.63237 36.4668 1.63237V0V-1.63237C32.6286 -1.63237 29.5929 1.43651 27.6141 5.39368C25.5865 9.44846 24.3794 14.9359 24.3794 20.9082L26.0117 20.9082Z" fill="#F3F1ED" mask="url(#path-1-inside-1_0_19)"/>
</g>
<circle id="Ellipse 140" cx="38.3341" cy="40.6531" r="5.80803" fill="#323232"/>
</g>
</svg>
