<svg preserveAspectRatio="none" overflow="visible" style="display: block;" width="91.4399" height="91.4401" viewBox="0 0 91.4399 91.4401" fill="none" xmlns="http://www.w3.org/2000/svg">
<g id="mug">
<path id="Ellipse 130" d="M74.814 34.1784C82.3094 34.1784 88.8697 41.085 88.8697 50.235C88.8695 59.3849 82.3093 66.2907 74.814 66.2907C67.319 66.2904 60.7595 59.3847 60.7593 50.235C60.7593 41.0852 67.3189 34.1787 74.814 34.1784Z" stroke="#F3F1ED" stroke-width="5.14122"/>
<path id="Rectangle 395" d="M66.8711 8.21484C66.9475 8.53993 67.0318 8.90075 67.1182 9.29297C67.5239 11.136 68.007 13.6429 68.3281 16.3223C68.6512 19.0178 68.799 21.7984 68.5723 24.2168C68.3386 26.7093 67.7415 28.4226 66.9287 29.3672C64.9033 31.7204 64.7465 34.4339 65.1602 36.9043C65.5465 39.2113 66.5449 41.8572 67.2861 44.1797C68.849 49.0764 69.9097 54.1788 66.6377 59.9795C65.0563 62.7831 64.0764 65.6936 63.5215 68.5537C62.5684 73.4662 60.3808 78.6657 57.2588 82.5781C54.1388 86.4879 50.3051 88.8691 45.9941 88.8691H21.9697C18.6805 88.8691 15.4268 86.884 12.7412 83.5293C10.0736 80.1969 8.27462 75.8672 7.81445 72.0293C7.38367 68.4367 6.44682 64.4936 4.76074 60.2861C3.059 56.0396 2.62241 53.2865 2.68945 51.334C2.75489 49.4298 3.30078 48.0717 4.03809 46.4863C4.76847 44.9159 5.80252 42.9274 6.17285 40.2871C6.54956 37.6013 6.23533 34.4346 4.81055 30.2207C2.27846 22.7318 2.30232 16.7991 2.91211 12.8057C3.21803 10.8023 3.67374 9.27381 4.03906 8.27051C4.04587 8.25181 4.05282 8.23318 4.05957 8.21484H66.8711Z" fill="#323232" stroke="#F3F1ED" stroke-width="5.14122"/>
<path id="Ellipse 129" d="M68.8765 5.64444C68.8765 8.76177 75.6652 11.2889 35.6256 11.2889C-5.4241 11.2889 2.37477 8.76177 2.37477 5.64444C2.37477 2.5271 17.2617 0 35.6256 0C53.9896 0 68.8765 2.5271 68.8765 5.64444Z" fill="#F3F1ED"/>
</g>
</svg>
