<svg preserveAspectRatio="none" overflow="visible" style="display: block;" width="254.074" height="254.074" viewBox="0 0 254.074 254.074" fill="none" xmlns="http://www.w3.org/2000/svg">
<g id="sticker black">
<path id="Star 5" d="M112.872 21.4502C119.582 11.2891 134.492 11.2891 141.202 21.4502V21.4502C146.079 28.8356 155.812 31.2345 163.563 26.9616V26.9616C174.227 21.0828 187.429 28.0119 188.648 40.1274V40.1274C189.535 48.9334 197.038 55.5807 205.887 55.3991V55.3991C218.061 55.1493 226.531 67.4201 221.98 78.7147V78.7147C218.673 86.9238 222.227 96.2966 230.147 100.248V100.248C241.043 105.684 242.84 120.486 233.562 128.372V128.372C226.818 134.104 225.61 144.055 230.786 151.234V151.234C237.907 161.111 232.62 175.052 220.739 177.723V177.723C212.105 179.665 206.41 187.914 207.657 196.677V196.677C209.372 208.732 198.212 218.619 186.451 215.463V215.463C177.903 213.169 169.027 217.828 166.059 226.166V226.166C161.976 237.637 147.499 241.206 138.552 232.946V232.946C132.049 226.942 122.025 226.942 115.522 232.946V232.946C106.575 241.206 92.0983 237.637 88.0149 226.166V226.166C85.0469 217.828 76.1709 213.169 67.6229 215.463V215.463C55.8622 218.619 44.7018 208.732 46.4172 196.677V196.677C47.664 187.914 41.9696 179.665 33.3347 177.723V177.723C21.4544 175.052 16.1672 161.111 23.2886 151.234V151.234C28.4646 144.055 27.2563 134.104 20.5126 128.372V128.372C11.2344 120.486 13.0316 105.684 23.9275 100.248V100.248C31.8469 96.2966 35.4015 86.9238 32.094 78.7147V78.7147C27.5434 67.4201 36.0133 55.1493 48.1876 55.3991V55.3991C57.0361 55.5807 64.5394 48.9334 65.4257 40.1274V40.1274C66.6452 28.0119 79.8474 21.0828 90.5111 26.9616V26.9616C98.2617 31.2345 107.995 28.8356 112.872 21.4502V21.4502Z" fill="#323232"/>
</g>
</svg>
