<svg preserveAspectRatio="none" overflow="visible" style="display: block;" width="112.389" height="183.78" viewBox="0 0 112.389 183.78" fill="none" xmlns="http://www.w3.org/2000/svg">
<g id="sublogo">
<g id="mug">
<path id="Ellipse 130" d="M95.4555 125.061C103.35 125.061 110.167 132.315 110.167 141.81C110.167 151.305 103.35 158.56 95.4555 158.56C87.5614 158.56 80.7445 151.305 80.7445 141.81C80.7447 132.315 87.5614 125.061 95.4555 125.061Z" stroke="#F3F1ED" stroke-width="4.44444"/>
<path id="Rectangle 395" d="M87.6788 98.6162C87.7762 99.023 87.8866 99.4961 88.003 100.024C88.4181 101.91 88.9132 104.476 89.2422 107.222C89.5729 109.981 89.7258 112.844 89.4913 115.347C89.2507 117.913 88.6321 119.759 87.7237 120.814C85.767 123.088 85.6019 125.713 86.0127 128.167C86.3999 130.479 87.3984 133.123 88.1641 135.522C89.7651 140.539 90.8882 145.874 87.4717 151.931C85.1872 155.981 84.152 160.254 83.8389 164.291C83.5132 168.49 81.8689 172.9 79.2891 176.216C76.7159 179.523 73.3773 181.558 69.6289 181.558H41.6309C38.1155 181.558 34.6991 179.439 31.9219 175.97C29.1603 172.52 27.2982 168.041 26.8204 164.057C26.3856 160.431 25.4397 156.448 23.7354 152.195C21.9898 147.839 21.5268 144.978 21.5977 142.916C21.6671 140.896 22.2505 139.455 23.0079 137.826C23.7593 136.21 24.7821 134.242 25.1495 131.623C25.5222 128.965 25.2158 125.804 23.7784 121.553C21.1777 113.861 21.1991 107.754 21.8291 103.628C22.1451 101.559 22.616 99.9766 22.9961 98.9326C23.0368 98.8208 23.077 98.7155 23.1153 98.6162H87.6788Z" fill="#2E2E2E" stroke="#F3F1ED" stroke-width="4.44444"/>
<path id="Ellipse 129" d="M89.4076 96.3932C89.4076 99.5683 96.3221 102.142 55.5403 102.142C13.7295 102.142 21.673 99.5683 21.673 96.3932C21.673 93.2181 36.8359 90.6441 55.5403 90.6441C74.2446 90.6441 89.4076 93.2181 89.4076 96.3932Z" fill="#F3F1ED"/>
</g>
<path id="Line 34" d="M31.9543 40.5485C50.8435 61.3743 62.6762 62.4211 62.6765 95.4628" stroke="#F3F1ED" stroke-width="4.44444"/>
<g id="flower">
<g id="Union">
<mask id="path-5-inside-1_0_4" fill="white">
<path d="M74.9106 29.6819C76.583 34.3573 70.3988 40.848 61.0804 44.2256C61.7448 44.6304 62.409 45.0626 63.0668 45.525C71.2337 51.2656 75.5273 59.2292 72.657 63.3126C69.7868 67.3961 60.8397 66.0527 52.6728 60.3122C51.6345 59.5824 50.6592 58.8158 49.7528 58.0265C49.6792 58.9918 49.5652 59.9766 49.4059 60.9738C47.8312 70.8311 42.5594 78.1838 37.6308 77.3971C32.7019 76.6097 29.9819 67.98 31.5566 58.1224C31.7587 56.8574 32.0233 55.6341 32.3386 54.4635C31.7982 54.6871 31.2461 54.902 30.6821 55.1038C21.2828 58.4665 12.3001 57.3821 10.6188 52.6825C8.93746 47.9829 15.1939 41.4467 24.5932 38.084C24.7013 38.0454 24.8102 38.0094 24.9182 37.9719C16.8252 32.2376 12.5831 24.3301 15.44 20.2656C18.3103 16.1822 27.2585 17.526 35.4255 23.2666C35.8824 23.5878 36.3266 23.9169 36.7588 24.2509C36.8204 23.7077 36.8936 23.1592 36.9818 22.6071C38.5565 12.7494 43.829 5.39615 48.7579 6.18351C53.6864 6.97129 56.4053 15.6004 54.8308 25.4576C54.7253 26.1177 54.6019 26.7667 54.4645 27.4027C54.5918 27.3555 54.7188 27.3065 54.8472 27.2606C64.2465 23.8979 73.2293 24.9823 74.9106 29.6819Z"/>
</mask>
<path d="M74.9106 29.6819C76.583 34.3573 70.3988 40.848 61.0804 44.2256C61.7448 44.6304 62.409 45.0626 63.0668 45.525C71.2337 51.2656 75.5273 59.2292 72.657 63.3126C69.7868 67.3961 60.8397 66.0527 52.6728 60.3122C51.6345 59.5824 50.6592 58.8158 49.7528 58.0265C49.6792 58.9918 49.5652 59.9766 49.4059 60.9738C47.8312 70.8311 42.5594 78.1838 37.6308 77.3971C32.7019 76.6097 29.9819 67.98 31.5566 58.1224C31.7587 56.8574 32.0233 55.6341 32.3386 54.4635C31.7982 54.6871 31.2461 54.902 30.6821 55.1038C21.2828 58.4665 12.3001 57.3821 10.6188 52.6825C8.93746 47.9829 15.1939 41.4467 24.5932 38.084C24.7013 38.0454 24.8102 38.0094 24.9182 37.9719C16.8252 32.2376 12.5831 24.3301 15.44 20.2656C18.3103 16.1822 27.2585 17.526 35.4255 23.2666C35.8824 23.5878 36.3266 23.9169 36.7588 24.2509C36.8204 23.7077 36.8936 23.1592 36.9818 22.6071C38.5565 12.7494 43.829 5.39615 48.7579 6.18351C53.6864 6.97129 56.4053 15.6004 54.8308 25.4576C54.7253 26.1177 54.6019 26.7667 54.4645 27.4027C54.5918 27.3555 54.7188 27.3065 54.8472 27.2606C64.2465 23.8979 73.2293 24.9823 74.9106 29.6819Z" fill="#F3F1ED"/>
<path d="M74.9106 29.6819L76.2393 29.2066L76.2392 29.2066L74.9106 29.6819ZM61.0804 44.2256L60.5995 42.8989L57.8353 43.9009L60.3462 45.4307L61.0804 44.2256ZM63.0668 45.525L63.8783 44.3706L63.8783 44.3706L63.0668 45.525ZM72.657 63.3126L73.8115 64.1241L73.8115 64.1241L72.657 63.3126ZM52.6728 60.3122L51.8614 61.4667L51.8614 61.4667L52.6728 60.3122ZM49.7528 58.0265L50.6794 56.9623L48.5594 55.1163L48.3457 57.9193L49.7528 58.0265ZM49.4059 60.9738L50.7994 61.1964L50.7994 61.1964L49.4059 60.9738ZM37.6308 77.3971L37.4082 78.7906L37.4083 78.7906L37.6308 77.3971ZM31.5566 58.1224L30.1631 57.8998V57.8998L31.5566 58.1224ZM32.3386 54.4635L33.7012 54.8305L34.4463 52.0644L31.7991 53.1596L32.3386 54.4635ZM30.6821 55.1038L31.1574 56.4325L31.1574 56.4325L30.6821 55.1038ZM10.6188 52.6825L9.29009 53.1578L9.29009 53.1578L10.6188 52.6825ZM24.5932 38.084L24.1179 36.7554L24.1179 36.7554L24.5932 38.084ZM24.9182 37.9719L25.3811 39.305L27.9711 38.4056L25.734 36.8205L24.9182 37.9719ZM15.44 20.2656L14.2855 19.4541L14.2855 19.4541L15.44 20.2656ZM35.4255 23.2666L36.237 22.1121L36.2369 22.1121L35.4255 23.2666ZM36.7588 24.2509L35.8957 25.3674L37.8785 26.9002L38.1609 24.41L36.7588 24.2509ZM36.9818 22.6071L35.5883 22.3845L35.5883 22.3845L36.9818 22.6071ZM48.7579 6.18351L48.9806 4.79006L48.9805 4.79004L48.7579 6.18351ZM54.8308 25.4576L56.2242 25.6802L56.2242 25.6802L54.8308 25.4576ZM54.4645 27.4027L53.0852 27.1047L52.5419 29.6194L54.9546 28.726L54.4645 27.4027ZM54.8472 27.2606L54.3719 25.9319L54.3719 25.9319L54.8472 27.2606ZM74.9106 29.6819L73.5819 30.1572C74.1424 31.7242 73.4796 33.9613 71.0947 36.4677C68.7735 38.9072 65.0985 41.2682 60.5995 42.8989L61.0804 44.2256L61.5613 45.5523C66.3808 43.8054 70.457 41.2323 73.1394 38.4132C75.758 35.661 77.3511 32.315 76.2393 29.2066L74.9106 29.6819ZM61.0804 44.2256L60.3462 45.4307C60.9864 45.8207 61.6246 46.2361 62.2553 46.6795L63.0668 45.525L63.8783 44.3706C63.1934 43.8891 62.5033 43.4401 61.8147 43.0205L61.0804 44.2256ZM63.0668 45.525L62.2553 46.6795C66.1984 49.4511 69.1476 52.7217 70.7587 55.7099C72.4146 58.7812 72.4648 61.1323 71.5026 62.5011L72.657 63.3126L73.8115 64.1241C75.7196 61.4095 75.058 57.7371 73.2429 54.3706C71.3831 50.921 68.1021 47.3395 63.8783 44.3706L63.0668 45.525ZM72.657 63.3126L71.5026 62.5011C70.5404 63.87 68.3112 64.619 64.8607 64.1009C61.5035 63.5969 57.4274 61.9294 53.4843 59.1578L52.6728 60.3122L51.8614 61.4667C56.0852 64.4356 60.5661 66.31 64.4417 66.8919C68.2239 67.4598 71.9034 66.8387 73.8115 64.1241L72.657 63.3126ZM52.6728 60.3122L53.4843 59.1578C52.486 58.4561 51.5492 57.7196 50.6794 56.9623L49.7528 58.0265L48.8261 59.0908C49.7691 59.9119 50.7829 60.7087 51.8614 61.4667L52.6728 60.3122ZM49.7528 58.0265L48.3457 57.9193C48.275 58.847 48.1655 59.7933 48.0125 60.7512L49.4059 60.9738L50.7994 61.1964C50.965 60.1599 51.0834 59.1365 51.1598 58.1338L49.7528 58.0265ZM49.4059 60.9738L48.0125 60.7512C47.2522 65.5104 45.6074 69.5957 43.6293 72.3547C41.5961 75.1904 39.5054 76.2673 37.8532 76.0036L37.6308 77.3971L37.4083 78.7906C40.6847 79.3136 43.6943 77.1075 45.9229 73.9992C48.2065 70.8142 49.985 66.2945 50.7994 61.1964L49.4059 60.9738ZM37.6308 77.3971L37.8534 76.0036C36.201 75.7397 34.5496 74.065 33.5007 70.7369C32.4802 67.4989 32.1898 63.1043 32.9501 58.345L31.5566 58.1224L30.1631 57.8998C29.3487 62.9981 29.6309 67.8472 30.809 71.5853C31.9587 75.2333 34.1316 78.2671 37.4082 78.7906L37.6308 77.3971ZM31.5566 58.1224L32.9501 58.345C33.1443 57.1294 33.3985 55.9543 33.7012 54.8305L32.3386 54.4635L30.976 54.0965C30.6481 55.3139 30.3731 56.5854 30.1631 57.8998L31.5566 58.1224ZM32.3386 54.4635L31.7991 53.1596C31.2771 53.3755 30.7466 53.582 30.2067 53.7752L30.6821 55.1038L31.1574 56.4325C31.7457 56.222 32.3193 55.9986 32.8781 55.7675L32.3386 54.4635ZM30.6821 55.1038L30.2067 53.7752C25.6687 55.3987 21.2958 55.9223 17.9253 55.5155C14.461 55.0974 12.5111 53.7826 11.9474 52.2072L10.6188 52.6825L9.29009 53.1578C10.4078 56.282 13.7898 57.8592 17.5871 58.3175C21.4781 58.7871 26.2962 58.1716 31.1574 56.4325L30.6821 55.1038ZM10.6188 52.6825L11.9474 52.2072C11.3838 50.6317 12.0573 48.3784 14.4701 45.8577C16.8178 43.4052 20.5305 41.0362 25.0685 39.4127L24.5932 38.084L24.1179 36.7554C19.2567 38.4945 15.1415 41.0749 12.4314 43.9061C9.78654 46.6691 8.17242 50.0337 9.29009 53.1578L10.6188 52.6825ZM24.5932 38.084L25.0685 39.4127C25.1739 39.375 25.2402 39.3539 25.3811 39.305L24.9182 37.9719L24.4553 36.6389C24.3801 36.665 24.2288 36.7157 24.1179 36.7554L24.5932 38.084ZM24.9182 37.9719L25.734 36.8205C21.8267 34.052 18.9081 30.797 17.3168 27.8262C15.6817 24.7738 15.637 22.4393 16.5945 21.0771L15.44 20.2656L14.2855 19.4541C12.3861 22.1564 13.0339 25.8078 14.8289 29.1589C16.6677 32.5915 19.9167 36.1576 24.1023 39.1233L24.9182 37.9719ZM15.44 20.2656L16.5945 21.0771C17.5566 19.7083 19.786 18.9594 23.237 19.4776C26.5945 19.9818 30.6709 21.6494 34.614 24.421L35.4255 23.2666L36.2369 22.1121C32.0131 19.1432 27.5319 17.2686 23.6561 16.6866C19.8736 16.1186 16.1937 16.7395 14.2855 19.4541L15.44 20.2656ZM35.4255 23.2666L34.614 24.421C35.052 24.7289 35.479 25.0452 35.8957 25.3674L36.7588 24.2509L37.6219 23.1345C37.1743 22.7885 36.7129 22.4467 36.237 22.1121L35.4255 23.2666ZM36.7588 24.2509L38.1609 24.41C38.2205 23.8853 38.2908 23.3582 38.3752 22.8297L36.9818 22.6071L35.5883 22.3845C35.4963 22.9603 35.4204 23.5301 35.3566 24.0919L36.7588 24.2509ZM36.9818 22.6071L38.3752 22.8297C39.1355 18.0703 40.7805 13.9848 42.7588 11.2257C44.7922 8.38987 46.883 7.31304 48.5353 7.57698L48.7579 6.18351L48.9805 4.79004C45.7039 4.26662 42.694 6.47275 40.4652 9.58114C38.1814 12.7662 36.4027 17.2862 35.5883 22.3845L36.9818 22.6071ZM48.7579 6.18351L48.5351 7.57696C50.1873 7.84105 51.8385 9.51565 52.8871 12.8436C53.9073 16.0815 54.1975 20.4758 53.4373 25.235L54.8308 25.4576L56.2242 25.6802C57.0386 20.5822 56.7566 15.7333 55.5789 11.9954C54.4295 8.34758 52.2569 5.31375 48.9806 4.79006L48.7579 6.18351ZM54.8308 25.4576L53.4373 25.235C53.3362 25.8681 53.2176 26.4919 53.0852 27.1047L54.4645 27.4027L55.8439 27.7007C55.9863 27.0415 56.1145 26.3673 56.2242 25.6802L54.8308 25.4576ZM54.4645 27.4027L54.9546 28.726C55.1087 28.6689 55.2013 28.6326 55.3226 28.5892L54.8472 27.2606L54.3719 25.9319C54.2363 25.9804 54.0749 26.0422 53.9745 26.0793L54.4645 27.4027ZM54.8472 27.2606L55.3226 28.5892C59.8606 26.9657 64.2335 26.4421 67.604 26.8489C71.0683 27.267 73.0183 28.5818 73.5819 30.1572L74.9106 29.6819L76.2392 29.2066C75.1215 26.0824 71.7395 24.5052 67.9422 24.0469C64.0513 23.5773 59.2331 24.1928 54.3719 25.9319L54.8472 27.2606Z" fill="#F3F1ED" mask="url(#path-5-inside-1_0_4)"/>
</g>
<circle id="Ellipse 140" cx="42.3647" cy="43.0401" r="5.02089" transform="rotate(70.3152 42.3647 43.0401)" fill="#2E2E2E"/>
</g>
</g>
</svg>
