<svg preserveAspectRatio="none" overflow="visible" style="display: block;" width="184.559" height="24.5063" viewBox="0 0 184.559 24.5063" fill="none" xmlns="http://www.w3.org/2000/svg">
<path id="Arrow 1" d="M0.504537 1.13897L0.502776 0.638973L0 0.640743L0.00455704 1.1435L0.504537 1.13897ZM181.5 0.501747L181.999 0.497212L181.995 0L181.498 0.00175059L181.5 0.501747ZM181.717 24.5018L184.559 19.4758L178.785 19.5282L181.717 24.5018ZM0.716299 24.5018L1.21628 24.4973L1.00452 1.13444L0.504537 1.13897L0.00455704 1.1435L0.216319 24.5063L0.716299 24.5018ZM0.504537 1.13897L0.506297 1.63897L181.501 1.00174L181.5 0.501747L181.498 0.00175059L0.502776 0.638973L0.504537 1.13897ZM181.5 0.501747L181 0.506283L181.176 20.0065L181.676 20.002L182.176 19.9975L181.999 0.497212L181.5 0.501747Z" fill="#FEFEFE"/>
</svg>
